<svg width="55" height="33" viewBox="0 0 55 33" fill="none" xmlns="http://www.w3.org/2000/svg">
<path d="M38.9258 2.51172C41.2305 2.51172 43.3268 2.8763 45.2148 3.60547C47.1029 4.33464 48.7174 5.35677 50.0586 6.67188C51.4128 7.97396 52.4544 9.52995 53.1836 11.3398C53.9258 13.1367 54.2969 15.1159 54.2969 17.2773C54.2969 18.5013 54.1667 19.7188 53.9062 20.9297C53.6458 22.1406 53.2552 23.293 52.7344 24.3867C52.2135 25.4805 51.5495 26.4961 50.7422 27.4336C49.9479 28.3711 49.0104 29.1849 47.9297 29.875C46.862 30.5651 45.6445 31.1055 44.2773 31.4961C42.9232 31.8867 41.4193 32.082 39.7656 32.082C37.3047 32.082 35.1432 31.7109 33.2812 30.9688C31.4193 30.2135 29.8633 29.1719 28.6133 27.8438C27.3633 26.5026 26.4193 24.9141 25.7812 23.0781C25.1562 21.2292 24.8438 19.2174 24.8438 17.043C24.8438 14.9206 25.1888 12.974 25.8789 11.2031C26.569 9.41927 27.5326 7.88281 28.7695 6.59375C30.0195 5.30469 31.5039 4.30208 33.2227 3.58594C34.9544 2.86979 36.8555 2.51172 38.9258 2.51172ZM38.125 3.52734C36.849 3.52734 35.6966 3.8138 34.668 4.38672C33.6523 4.95964 32.7799 5.77995 32.0508 6.84766C31.3346 7.90234 30.7812 9.1849 30.3906 10.6953C30 12.1927 29.8047 13.8789 29.8047 15.7539C29.8047 16.8346 29.8763 17.9609 30.0195 19.1328C30.1758 20.3047 30.4167 21.457 30.7422 22.5898C31.0677 23.7227 31.4974 24.7969 32.0312 25.8125C32.5651 26.8281 33.2161 27.7201 33.9844 28.4883C34.7526 29.2565 35.6445 29.8685 36.6602 30.3242C37.6888 30.7799 38.8607 31.0078 40.1758 31.0078C41.7383 31.0078 43.0534 30.6953 44.1211 30.0703C45.1888 29.4323 46.0482 28.599 46.6992 27.5703C47.3633 26.5417 47.8385 25.3763 48.125 24.0742C48.4245 22.7591 48.5742 21.4245 48.5742 20.0703C48.5742 18.9375 48.5091 17.7396 48.3789 16.4766C48.2617 15.2135 48.0469 13.9701 47.7344 12.7461C47.4349 11.5221 47.0247 10.3568 46.5039 9.25C45.9961 8.13021 45.3516 7.14714 44.5703 6.30078C43.8021 5.45443 42.8841 4.78385 41.8164 4.28906C40.7617 3.78125 39.5312 3.52734 38.125 3.52734Z" fill="#688990"/>
<path d="M7.51953 0.636719C7.74089 0.636719 7.96224 0.688802 8.18359 0.792969C8.41797 0.897135 8.70443 1.03385 9.04297 1.20312C9.39453 1.35938 9.82422 1.53516 10.332 1.73047C10.8398 1.92578 11.4779 2.10807 12.2461 2.27734C12.6758 2.36849 13.1185 2.4401 13.5742 2.49219C14.0299 2.54427 14.4792 2.58333 14.9219 2.60938C15.3646 2.6224 15.7943 2.63542 16.2109 2.64844H17.3633C17.5586 2.64844 17.7474 2.65495 17.9297 2.66797C18.112 2.68099 18.2747 2.70703 18.418 2.74609C18.5742 2.78516 18.6979 2.84375 18.7891 2.92188C18.8802 3 18.9258 3.10417 18.9258 3.23438C18.9258 3.3776 18.8932 3.49479 18.8281 3.58594C18.763 3.66406 18.6784 3.72917 18.5742 3.78125C18.4831 3.82031 18.3789 3.84635 18.2617 3.85938C18.1445 3.8724 18.0339 3.87891 17.9297 3.87891C17.6432 3.87891 17.3372 3.86589 17.0117 3.83984C16.6862 3.8138 16.3346 3.80078 15.957 3.80078C14.7721 3.80078 13.7565 4.0026 12.9102 4.40625C12.0768 4.79688 11.3607 5.30469 10.7617 5.92969C10.6055 6.08594 10.3711 6.33333 10.0586 6.67188C9.75911 6.9974 9.42708 7.36198 9.0625 7.76562C8.71094 8.16927 8.34635 8.59896 7.96875 9.05469C7.59115 9.4974 7.24609 9.91406 6.93359 10.3047C6.62109 10.6953 6.36719 11.0404 6.17188 11.3398C5.97656 11.6263 5.87891 11.8216 5.87891 11.9258C5.87891 12.1211 5.97005 12.5052 6.15234 13.0781C6.34766 13.638 6.61458 14.3216 6.95312 15.1289C7.30469 15.9362 7.73438 16.8281 8.24219 17.8047C8.75 18.7682 9.32292 19.7383 9.96094 20.7148C10.599 21.6914 11.2956 22.6419 12.0508 23.5664C12.806 24.4779 13.6133 25.2917 14.4727 26.0078C15.3451 26.7109 16.2565 27.2773 17.207 27.707C18.1576 28.1367 19.1406 28.3516 20.1562 28.3516C20.7422 28.3516 21.263 28.2604 21.7188 28.0781C22.1745 27.8958 22.5521 27.6484 22.8516 27.3359C23.151 27.0104 23.3789 26.6263 23.5352 26.1836C23.6914 25.7409 23.7695 25.2656 23.7695 24.7578C23.7695 24.263 23.6914 23.7747 23.5352 23.293C23.3919 22.7982 23.1706 22.3294 22.8711 21.8867C22.6497 21.5612 22.4414 21.3008 22.2461 21.1055C22.0638 20.8971 21.901 20.7279 21.7578 20.5977C21.6146 20.4544 21.4974 20.3307 21.4062 20.2266C21.3281 20.1094 21.2891 19.9792 21.2891 19.8359C21.2891 19.7318 21.3216 19.6276 21.3867 19.5234C21.4518 19.4193 21.5755 19.3672 21.7578 19.3672C22.0833 19.3672 22.4609 19.5104 22.8906 19.7969C23.3333 20.0703 23.7435 20.4674 24.1211 20.9883C24.4987 21.4961 24.8177 22.1211 25.0781 22.8633C25.3516 23.5924 25.4883 24.4128 25.4883 25.3242C25.4883 25.7279 25.4492 26.1706 25.3711 26.6523C25.293 27.1341 25.1497 27.6159 24.9414 28.0977C24.7461 28.5794 24.4727 29.0417 24.1211 29.4844C23.7826 29.9271 23.3529 30.3242 22.832 30.6758C22.3112 31.0143 21.6927 31.2878 20.9766 31.4961C20.2604 31.7044 19.4271 31.8086 18.4766 31.8086C17.1094 31.8086 15.8268 31.5807 14.6289 31.125C13.431 30.6562 12.3112 30.0443 11.2695 29.2891C10.2409 28.5208 9.29036 27.6484 8.41797 26.6719C7.55859 25.6953 6.77734 24.6992 6.07422 23.6836C4.43359 21.3008 1.84245 18.4948 0.683594 15.4609L2.08984 13.8789C2.6237 13.2799 3.18359 12.6549 3.76953 12.0039C4.35547 11.3529 4.91536 10.7214 5.44922 10.1094C5.98307 9.48438 6.47135 8.91146 6.91406 8.39062C7.35677 7.85677 7.70833 7.42057 7.96875 7.08203C8.41146 6.49609 8.73047 5.98828 8.92578 5.55859C9.13411 5.11589 9.23828 4.71875 9.23828 4.36719C9.23828 4.06771 9.17969 3.79427 9.0625 3.54688C8.95833 3.29948 8.84115 3.10417 8.71094 2.96094C8.54167 2.7526 8.35938 2.5638 8.16406 2.39453C7.98177 2.21224 7.80599 2.04297 7.63672 1.88672C7.48047 1.73047 7.34375 1.58724 7.22656 1.45703C7.1224 1.32682 7.07031 1.20312 7.07031 1.08594C7.07031 0.955729 7.10286 0.851562 7.16797 0.773438C7.24609 0.682292 7.36328 0.636719 7.51953 0.636719Z" fill="#688990"/>
</svg>
